<svg xmlns="http://www.w3.org/2000/svg" viewBox="0 0 500 500"><g id="freepik--background-complete--inject-40"><rect y="382.4" width="500" height="0.25" style="fill:#ebebeb"></rect><rect x="416.78" y="398.49" width="33.12" height="0.25" style="fill:#ebebeb"></rect><rect x="322.53" y="401.21" width="8.69" height="0.25" style="fill:#ebebeb"></rect><rect x="396.59" y="389.21" width="19.19" height="0.25" style="fill:#ebebeb"></rect><rect x="52.46" y="390.89" width="43.19" height="0.25" style="fill:#ebebeb"></rect><rect x="104.56" y="390.89" width="6.33" height="0.25" style="fill:#ebebeb"></rect><rect x="131.47" y="395.11" width="93.68" height="0.25" style="fill:#ebebeb"></rect><path d="M237,337.8H43.91a5.71,5.71,0,0,1-5.7-5.71V60.66A5.71,5.71,0,0,1,43.91,55H237a5.71,5.71,0,0,1,5.71,5.71V332.09A5.71,5.71,0,0,1,237,337.8ZM43.91,55.2a5.46,5.46,0,0,0-5.45,5.46V332.09a5.46,5.46,0,0,0,5.45,5.46H237a5.47,5.47,0,0,0,5.46-5.46V60.66A5.47,5.47,0,0,0,237,55.2Z" style="fill:#ebebeb"></path><path d="M453.31,337.8H260.21a5.72,5.72,0,0,1-5.71-5.71V60.66A5.72,5.72,0,0,1,260.21,55h193.1A5.71,5.71,0,0,1,459,60.66V332.09A5.71,5.71,0,0,1,453.31,337.8ZM260.21,55.2a5.47,5.47,0,0,0-5.46,5.46V332.09a5.47,5.47,0,0,0,5.46,5.46h193.1a5.47,5.47,0,0,0,5.46-5.46V60.66a5.47,5.47,0,0,0-5.46-5.46Z" style="fill:#ebebeb"></path><polygon points="439.36 138.8 407.94 120.52 383.73 120.52 351.78 137.94 351.78 256.42 439.36 256.42 439.36 138.8" style="fill:#e0e0e0"></polygon><path d="M350.88,138.8l.9-.86a62.24,62.24,0,0,1,43.34-17.42h0a62.24,62.24,0,0,1,43.34,17.42l.9.86V256.42H350.88Zm82.61,2.52a56.77,56.77,0,0,0-76.74,0V250.55h76.74Z" style="fill:#fafafa"></path><polygon points="397.32 251.26 392.92 251.26 392.92 211.94 355.63 211.94 355.63 207.53 392.92 207.53 392.92 167.32 355.63 167.32 355.63 162.91 392.92 162.91 392.92 125.63 397.32 125.63 397.32 162.91 434.61 162.91 434.61 167.32 397.32 167.32 397.32 207.53 434.61 207.53 434.61 211.94 397.32 211.94 397.32 251.26" style="fill:#f0f0f0"></polygon><path d="M347.94,137.6l.86-.86a65.6,65.6,0,0,1,92.64,0l.86.86V259.36H347.94Zm88.49,2.45a59.71,59.71,0,0,0-82.62,0V253.49h82.62Z" style="fill:#f0f0f0"></path><path d="M75.41,149.19s-.86-5.64,3.25-9.25,3.75-5.76,2.58-6.05-2.26,3.34-4.07,4.33c0,0-.06-5.15,1.78-7s2.8-6.79,1-6.88-1.93,2.91-2.29,5a17.83,17.83,0,0,1-2.3,5.1s-.38-4.61-1.57-6.51,2-6.23.76-8.13-3.39,1.72-3.21,5.78,2.89,8.41,2.26,12.65c0,0-1.2-3-2.27-3.25s-2.16-2.24-2.88-3-1.63,1.8,0,4.14,5.78,8.64,5.15,13.72Z" style="fill:#e6e6e6"></path><path d="M77.86,146.62l1.35,8.45A4.3,4.3,0,0,1,75,160H73.53a4.29,4.29,0,0,1-4.24-5l1.35-8.45Z" style="fill:#e6e6e6"></path><rect x="57.5" y="156.93" width="95.15" height="4.89" transform="translate(210.16 318.74) rotate(180)" style="fill:#e0e0e0"></rect><rect x="144.08" y="138.9" width="4.19" height="18.02" transform="translate(292.36 295.83) rotate(180)" style="fill:#ebebeb"></rect><rect x="123.81" y="138.9" width="4.19" height="18.02" transform="translate(251.82 295.83) rotate(180)" style="fill:#ebebeb"></rect><rect x="99.24" y="138.68" width="4.19" height="18.02" transform="translate(176.12 310.44) rotate(-170.22)" style="fill:#ebebeb"></rect><rect x="138.89" y="141.28" width="4.19" height="15.65" transform="translate(281.97 298.2) rotate(180)" style="fill:#ebebeb"></rect><rect x="129.25" y="141.28" width="4.19" height="15.65" transform="translate(262.7 298.2) rotate(180)" style="fill:#ebebeb"></rect><rect x="104.93" y="141.28" width="4.19" height="15.65" transform="translate(214.06 298.2) rotate(180)" style="fill:#ebebeb"></rect><rect x="116.56" y="141.01" width="4.19" height="15.65" transform="translate(202.21 319.86) rotate(-167.47)" style="fill:#ebebeb"></rect><rect x="135.26" y="138.01" width="2.1" height="18.92" transform="translate(272.63 294.93) rotate(180)" style="fill:#ebebeb"></rect><rect x="110.33" y="138.01" width="2.1" height="18.92" transform="translate(222.76 294.93) rotate(180)" style="fill:#ebebeb"></rect><rect x="57.5" y="193.42" width="95.15" height="4.89" style="fill:#e0e0e0"></rect><rect x="61.88" y="175.4" width="4.19" height="18.02" style="fill:#ebebeb"></rect><rect x="82.15" y="175.4" width="4.19" height="18.02" style="fill:#ebebeb"></rect><rect x="106.72" y="175.18" width="4.19" height="18.02" transform="translate(-29.7 21.16) rotate(-9.78)" style="fill:#ebebeb"></rect><rect x="67.08" y="177.78" width="4.19" height="15.65" style="fill:#ebebeb"></rect><rect x="76.71" y="177.78" width="4.19" height="15.65" style="fill:#ebebeb"></rect><rect x="101.03" y="177.78" width="4.19" height="15.65" style="fill:#ebebeb"></rect><rect x="89.41" y="177.51" width="4.19" height="15.65" transform="translate(-38.02 24.26) rotate(-12.53)" style="fill:#ebebeb"></rect><rect x="72.8" y="174.51" width="2.1" height="18.92" style="fill:#ebebeb"></rect><rect x="97.73" y="174.51" width="2.1" height="18.92" style="fill:#ebebeb"></rect><rect x="123.1" y="179.16" width="20.43" height="14.1" style="fill:#ebebeb"></rect><circle cx="246.4" cy="110.38" r="18.79" style="fill:#e0e0e0"></circle><circle cx="246.4" cy="110.38" r="15.97" style="fill:#f0f0f0"></circle><polyline points="245.64 99.42 245.64 110.58 238.24 106.4" style="fill:#f0f0f0"></polyline><path d="M245.64,111.38a.78.78,0,0,1-.39-.1l-7.4-4.19a.8.8,0,1,1,.79-1.39l6.21,3.52v-9.8a.79.79,0,0,1,.79-.8.8.8,0,0,1,.8.8v11.16a.78.78,0,0,1-.4.69A.71.71,0,0,1,245.64,111.38Z" style="fill:#e0e0e0"></path></g><g id="freepik--Shadow--inject-40"><ellipse id="freepik--path--inject-40" cx="250" cy="416.24" rx="193.89" ry="11.32" style="fill:#f5f5f5"></ellipse></g><g id="freepik--Blackboard--inject-40"><polygon points="309.8 413.07 309.8 282.22 300.86 282.22 300.86 413.07 295.17 414.82 295.17 417.52 315.48 417.52 315.48 414.82 309.8 413.07" style="fill:#2e353a"></polygon><polygon points="196.01 282.22 187.07 282.22 187.07 413.07 181.38 414.82 181.38 417.52 201.7 417.52 201.7 414.82 196.01 413.07 196.01 282.22" style="fill:#2e353a"></polygon><g style="isolation:isolate;opacity:0.2"><polygon points="309.8 292.79 300.86 292.79 300.86 413.07 295.17 414.82 295.17 417.52 315.48 417.52 315.48 414.82 309.8 413.07 309.8 292.79" style="fill:#fff"></polygon><polygon points="196.01 292.79 187.07 292.79 187.07 413.07 181.38 414.82 181.38 417.52 201.7 417.52 201.7 414.82 196.01 413.07 196.01 292.79" style="fill:#fff"></polygon></g><rect x="176.1" y="124.14" width="144.67" height="177.99" transform="translate(461.57 -35.29) rotate(90)" style="fill:#2e353a"></rect><rect x="176.1" y="124.14" width="144.67" height="177.99" transform="translate(461.57 -35.29) rotate(90)" style="fill:#fff;isolation:isolate;opacity:0.2"></rect><rect x="163.4" y="144.82" width="170.07" height="136.56" style="fill:#40D7FF"></rect><rect x="163.4" y="144.82" width="170.07" height="136.56" style="fill:#fff;isolation:isolate;opacity:0.30000000000000004"></rect><rect x="163.4" y="144.82" width="170.07" height="136.56" style="fill:#fff;isolation:isolate;opacity:0.6000000000000001"></rect><g style="opacity:0.4"><path d="M247.29,276.06a.5.5,0,0,1-.5-.5l-.13-45c0-4.81,0-9.79.35-14.69a59.7,59.7,0,0,0-.54-8.5,61.37,61.37,0,0,1-.54-8.67c1.38-17.67,2.06-29.68,0-47.55a.5.5,0,1,1,1-.11c2.07,18,1.38,30,0,47.74a60.88,60.88,0,0,0,.54,8.48A61.71,61.71,0,0,1,248,216c-.38,4.86-.37,9.82-.35,14.61l.13,45a.5.5,0,0,1-.5.5Z"></path><path d="M173.25,179.8h-.05a.5.5,0,0,1-.45-.54l.84-9.78a.48.48,0,0,1,.54-.45.5.5,0,0,1,.46.54l-.85,9.77A.5.5,0,0,1,173.25,179.8Z"></path><path d="M174.74,183.41a.51.51,0,0,1-.43-.23.49.49,0,0,1,.16-.69c1.51-1,2.89-1.93,3.32-3.38a7.24,7.24,0,0,0,.19-1.69c.1-3.42.06-6.44-1.54-8.82-.05-.07-.18-.27-.28-.3a.5.5,0,1,1,.28-1,1.61,1.61,0,0,1,.83.7c1.76,2.63,1.82,5.81,1.71,9.41a7.67,7.67,0,0,1-.23,1.94c-.52,1.78-2.07,2.88-3.75,4A.48.48,0,0,1,174.74,183.41Z"></path><path d="M214.16,176.42c-1,0-3.25-.07-4.31-1.48a4.38,4.38,0,0,1-3.85.52l-.88-.24a5.79,5.79,0,0,0-3-.35,6.42,6.42,0,0,0-.8.29,5,5,0,0,1-1.24.4,2.18,2.18,0,0,1-1.64-.41,1.56,1.56,0,0,1-.34-.39,6.7,6.7,0,0,1-4,.11.48.48,0,0,1-.35-.34l-.26-.94a4.7,4.7,0,0,1-2.11,2.18,2.77,2.77,0,0,1-2.77-.42,2,2,0,0,1-.68-1L184.68,176a.51.51,0,0,1-.67-.24.5.5,0,0,1,.24-.67l3.95-1.88a.51.51,0,0,1,.53.06.48.48,0,0,1,.18.49.87.87,0,0,0,.37.87,1.81,1.81,0,0,0,1.74.27,5.13,5.13,0,0,0,2.17-2.86.5.5,0,0,1,.5-.29.5.5,0,0,1,.44.36l.55,1.92a5.84,5.84,0,0,0,3.55-.33.53.53,0,0,1,.46,0,.51.51,0,0,1,.24.39.39.39,0,0,0,.17.3,1.15,1.15,0,0,0,.86.2,4.18,4.18,0,0,0,1-.33,8,8,0,0,1,.94-.34,6.63,6.63,0,0,1,3.5.36l.84.23c1.19.29,2.67.27,3.29-.68a.5.5,0,0,1,.47-.22.48.48,0,0,1,.41.32c.38,1,1.64,1.54,3.9,1.51l18.73-.08h0a.5.5,0,0,1,0,1l-18.73.08Z"></path><path d="M187.49,197a1,1,0,0,1-.65-.23,1.45,1.45,0,0,1-.45-.95,1.17,1.17,0,0,0-.09-.35c-.1-.19-.39-.19-1-.13a2.23,2.23,0,0,1-1.94-.39.5.5,0,0,1,0-.71.48.48,0,0,1,.7,0c.21.2.68.15,1.14.11.66-.07,1.56-.16,2,.62a2.12,2.12,0,0,1,.21.68c0,.13.05.31.1.34a.72.72,0,0,0,.48-.29l.14-.19a2,2,0,0,1,1.15-.91,1.9,1.9,0,0,1,1.46.47,3.71,3.71,0,0,0,.49.28,2.55,2.55,0,0,0,1.9-.41c.24-.11.47-.22.7-.31,1.83-.71,3.74-.31,5.58.07a18.79,18.79,0,0,0,2.92.45,16.52,16.52,0,0,0,4.71-.73.5.5,0,0,1,.61.36.51.51,0,0,1-.37.61,17.28,17.28,0,0,1-5,.76,18.62,18.62,0,0,1-3.08-.47c-1.78-.37-3.47-.72-5-.12l-.64.29a3.35,3.35,0,0,1-2.71.43,4.21,4.21,0,0,1-.66-.38c-.33-.22-.54-.35-.71-.32s-.36.28-.55.52l-.16.22a1.81,1.81,0,0,1-1.12.67Z"></path><path d="M218.27,199.63a.49.49,0,0,1-.47-.34c-.43-1.26.63-2.21,1.49-3l.46-.41a3.52,3.52,0,0,0,.85-3.92,2.74,2.74,0,0,0-1.63-1.38,2.25,2.25,0,0,0-1.81.12,4,4,0,0,0-1.57,2,.49.49,0,0,1-.66.24.5.5,0,0,1-.25-.66,5.09,5.09,0,0,1,2-2.42,3.28,3.28,0,0,1,2.6-.19,3.74,3.74,0,0,1,2.22,1.89,4.53,4.53,0,0,1-1.06,5.08l-.49.44c-.86.77-1.41,1.31-1.21,1.9a.49.49,0,0,1-.31.63A.45.45,0,0,1,218.27,199.63Z"></path><path d="M218.46,204.36a1.57,1.57,0,0,1-.71-.16.52.52,0,0,1-.26-.54,3.5,3.5,0,0,1,.68-1.46.5.5,0,0,1,.78.63,2,2,0,0,0-.31.51.51.51,0,0,0,.16-.09.52.52,0,0,1,.71.08.5.5,0,0,1-.09.7A1.53,1.53,0,0,1,218.46,204.36Z"></path><path d="M174.08,230.19a16.83,16.83,0,0,1-1.89-.11.53.53,0,0,1-.36-.22.52.52,0,0,1-.07-.4,3.92,3.92,0,0,1,1.35-1.86,5.65,5.65,0,0,0,.83-.88,4.85,4.85,0,0,0,.4-3.5,2.15,2.15,0,0,0-1.12.19.5.5,0,1,1-.44-.9,3.19,3.19,0,0,1,2.13-.21.5.5,0,0,1,.37.41c.24,1.6.4,3.27-.52,4.58a6.94,6.94,0,0,1-1,1.05,5.45,5.45,0,0,0-.79.81,14,14,0,0,0,2.05,0,.5.5,0,0,1,.53.47.49.49,0,0,1-.46.53C174.77,230.18,174.42,230.19,174.08,230.19Z"></path><path d="M177.29,232.29a.54.54,0,0,1-.35-.14.51.51,0,0,1,0-.71,7.57,7.57,0,0,0,2.34-4.76,5,5,0,0,0-2.12-4.51.5.5,0,0,1,.53-.85,5.92,5.92,0,0,1,2.59,5.43,8.59,8.59,0,0,1-2.63,5.4A.54.54,0,0,1,177.29,232.29Z"></path><path d="M221.83,229.2c-.75,0-1.49,0-2.23,0a.49.49,0,0,1-.48-.47L219,226a15.1,15.1,0,0,1-8.87,2.94.51.51,0,0,1-.53-.43c0-.35-.26-1.51-1.07-1.79a.83.83,0,0,0-.84.31.35.35,0,0,0-.08.41h0a.5.5,0,0,1-.85.53h0c-.18-.3-.37-.6-.56-.9a7,7,0,0,1-2,1,.46.46,0,0,1-.41,0,.49.49,0,0,1-.23-.35,6.26,6.26,0,0,0-.6-1.88l-1.58,2.18a.5.5,0,0,1-.52.19.5.5,0,0,1-.38-.41,6.36,6.36,0,0,0-.38-1.44,7.58,7.58,0,0,0-1.3,1.75.5.5,0,0,1-.55.25.49.49,0,0,1-.39-.46l-.18-3.23a4.85,4.85,0,0,0-2,1.59l-.2.23a6.31,6.31,0,0,1-2.67,2.19,2.74,2.74,0,0,1-2.46-.38,2.05,2.05,0,0,1-.53-.53,2.9,2.9,0,0,1-1.71.63,2.83,2.83,0,0,1-2.06-.7l-1,1.19a.5.5,0,1,1-.76-.66l1.43-1.63a.48.48,0,0,1,.42-.17.47.47,0,0,1,.38.24,1.87,1.87,0,0,0,3.07-.14.5.5,0,0,1,.95.22.93.93,0,0,0,.42.74,1.85,1.85,0,0,0,1.56.25,5.62,5.62,0,0,0,2.23-1.89l.19-.23a4.82,4.82,0,0,1,3.25-2,.51.51,0,0,1,.52.47l.12,2.28a8.77,8.77,0,0,1,1.17-1.19.5.5,0,0,1,.77.15,7.88,7.88,0,0,1,.51,1.24l1.38-1.9a.48.48,0,0,1,.41-.21.5.5,0,0,1,.41.22,7.06,7.06,0,0,1,1,2.32,5.77,5.77,0,0,0,1.56-.95.49.49,0,0,1,.4-.12.51.51,0,0,1,.35.22c.06.11.13.21.19.31a1.85,1.85,0,0,1,1.93-.6,2.79,2.79,0,0,1,1.65,2.16,14.08,14.08,0,0,0,8.61-3.3.52.52,0,0,1,.52-.08.5.5,0,0,1,.31.43l.17,3.22a80.33,80.33,0,0,0,14.2-1,.5.5,0,0,1,.57.42.49.49,0,0,1-.41.57A82,82,0,0,1,221.83,229.2Z"></path><path d="M185.36,245.41a.5.5,0,0,1-.45-.27l-.8-1.58a.49.49,0,0,1,.22-.67.5.5,0,0,1,.67.21l.6,1.18a11.88,11.88,0,0,0,3.22-2,.5.5,0,0,1,.79.15,13.33,13.33,0,0,0,.73,1.34,1.55,1.55,0,0,1,.95-.09,2.79,2.79,0,0,1,.39.1,1.43,1.43,0,0,0,.53.1,1.61,1.61,0,0,0,.57-.27l.08-.06a7.45,7.45,0,0,1,3.09-1.1,1.78,1.78,0,0,1,1.28.24,2,2,0,0,1,.5.6l.09.15a1.61,1.61,0,0,0,1.25.65,1.57,1.57,0,0,0,1.31-.5.5.5,0,1,1,.76.66,2.61,2.61,0,0,1-2.13.84,2.59,2.59,0,0,1-2-1.1l-.12-.19a1.16,1.16,0,0,0-.22-.3,1,1,0,0,0-.58-.05,6.52,6.52,0,0,0-2.67.94,2.45,2.45,0,0,1-1.07.48,2.28,2.28,0,0,1-.93-.13l-.31-.08a.46.46,0,0,0-.37,0,.49.49,0,0,1-.88.11,12.89,12.89,0,0,1-.84-1.37,12.44,12.44,0,0,1-3.47,2A.47.47,0,0,1,185.36,245.41Z"></path><path d="M211.17,247.55a.52.52,0,0,1-.47-.32,3.41,3.41,0,0,1,.33-3,6.27,6.27,0,0,1,1.29-1.33,3.84,3.84,0,0,0,1.26-1.43,2.16,2.16,0,0,0-1.13-2.54,3.35,3.35,0,0,0-3.15.26,2.39,2.39,0,0,0-1.06,1.3.86.86,0,0,0,.09.67.5.5,0,0,1-.17.68.49.49,0,0,1-.69-.17,1.85,1.85,0,0,1-.2-1.43,3.35,3.35,0,0,1,1.52-1.91,4.33,4.33,0,0,1,4.11-.29,3.15,3.15,0,0,1,1.61,3.8,4.83,4.83,0,0,1-1.54,1.83,5.21,5.21,0,0,0-1.1,1.1,2.39,2.39,0,0,0-.23,2.14.5.5,0,0,1-.29.64A.39.39,0,0,1,211.17,247.55Z"></path><path d="M211.44,252.6a.93.93,0,0,1-.46-.12,1.35,1.35,0,0,1-.46-1.79,2.66,2.66,0,0,1,1.13-1.05.5.5,0,0,1,.69.18.49.49,0,0,1-.19.68,1.85,1.85,0,0,0-.73.64c-.09.18-.06.41,0,.47l0,0a.49.49,0,0,1,.29-.58.51.51,0,0,1,.66.26.92.92,0,0,1-.26,1.05A1.17,1.17,0,0,1,211.44,252.6Z"></path><path d="M254.54,180.5a.51.51,0,0,1-.32-.12.7.7,0,0,1-.25-.63,1.27,1.27,0,0,1,.68-.88l1.58-.82c.55-.29,1-.75.89-1a1.24,1.24,0,0,0-.47-.35,1.66,1.66,0,0,1-.93-1,1.45,1.45,0,0,1,.74-1.5,3.66,3.66,0,0,1,.56-.28,3.29,3.29,0,0,0,.46-.23,1,1,0,0,0,.42-1.17.69.69,0,0,0-.47-.37.53.53,0,0,0-.46.06.49.49,0,0,1-.7-.08.5.5,0,0,1,.08-.7,1.49,1.49,0,0,1,1.32-.25,1.69,1.69,0,0,1,1.15.94,2,2,0,0,1-.79,2.4,4.42,4.42,0,0,1-.61.32,2.14,2.14,0,0,0-.43.21c-.19.12-.32.3-.3.41s.24.23.45.36a1.9,1.9,0,0,1,.87.76c.41.8-.11,1.73-1.32,2.36l-1.58.83a.31.31,0,0,0-.09.07.52.52,0,0,1-.09.49A.5.5,0,0,1,254.54,180.5Z"></path><path d="M256.77,183.94a.51.51,0,0,1-.5-.5.5.5,0,0,1,.5-.5c.47,0,.9-.44,1.3-.89,1.35-1.51,3-3.39,3.33-5.61s-.94-4.63-2.35-7a.48.48,0,0,1,.17-.68.49.49,0,0,1,.68.17c1.52,2.5,2.84,5,2.49,7.63-.34,2.51-2.13,4.52-3.57,6.13a2.91,2.91,0,0,1-2.05,1.23Z"></path><path d="M273.48,177.92a.49.49,0,0,1-.43-.26l-.81-1.44-.44.57s0,0,0,0a.5.5,0,0,1-.78-.62l0,0a.56.56,0,0,0,0-.47.64.64,0,0,0-.47-.41.72.72,0,0,0-.56.22.93.93,0,0,0-.28.7.5.5,0,0,1-.47.53.48.48,0,0,1-.53-.46,1.92,1.92,0,0,1,.59-1.49,1.74,1.74,0,0,1,1.36-.49,1.56,1.56,0,0,1,1.18.81l.08-.11a.49.49,0,0,1,.43-.19.51.51,0,0,1,.4.26l.75,1.35a2.44,2.44,0,0,1,1.22-.91,1.28,1.28,0,0,1,1.09.17,2.42,2.42,0,0,1,.52.55c.1.14.21.29.3.31s.2,0,.56-.42l4.65-5.5a.5.5,0,0,1,.57-.15.52.52,0,0,1,.31.5,15.66,15.66,0,0,0,.66,5.65,15,15,0,0,0,4.3-3,.5.5,0,0,1,.57-.1,1.44,1.44,0,0,1,.67,1.41c0,.25,0,.55.14.63s.36-.09.7-.31a2,2,0,0,1,1.71-.5,1.8,1.8,0,0,1,.73.49,1.64,1.64,0,0,0,.24.21,2,2,0,0,0,1.13.15l5.11-.3a.51.51,0,0,1,.53.47.5.5,0,0,1-.47.53l-5.11.3a2.77,2.77,0,0,1-1.76-.33,3.57,3.57,0,0,1-.37-.31,1.1,1.1,0,0,0-.32-.26c-.2-.06-.55.17-.86.38-.51.34-1.2.8-1.88.27a1.68,1.68,0,0,1-.51-1.36c0-.07,0-.14,0-.21a15.77,15.77,0,0,1-4.64,3,.51.51,0,0,1-.4,0,.51.51,0,0,1-.27-.29,16.46,16.46,0,0,1-.91-5.11L278,176.77c-.22.26-.8,1-1.58.75a1.56,1.56,0,0,1-.86-.69,1.22,1.22,0,0,0-.27-.31.29.29,0,0,0-.27,0,2.21,2.21,0,0,0-1,1.15.53.53,0,0,1-.44.29Z"></path><path d="M307.66,177.08a1.5,1.5,0,0,1-1.54-1,1.18,1.18,0,0,1,0-.2H306l-2.45.39a.5.5,0,0,1-.57-.42.49.49,0,0,1,.41-.57l2.45-.38a1.06,1.06,0,0,1,.95.22,1,1,0,0,1,.26.59.36.36,0,0,1,0,.1c.06.19.47.27.8.21l.39-.08a2.81,2.81,0,0,1,1.42-.07.49.49,0,0,1,.34.62.5.5,0,0,1-.61.34,2,2,0,0,0-.92.08l-.45.1Z"></path><path d="M319.51,180.06a.49.49,0,0,1-.48-.36,4.33,4.33,0,0,1,.58-3.52,8.41,8.41,0,0,1,1.08-1.22,4.08,4.08,0,0,0,1.25-1.75,2.11,2.11,0,0,0-1.39-2.34,2.91,2.91,0,0,0-2.9.79c-.33.34-.59.85-.43,1.21a.5.5,0,0,1-.92.4,2.16,2.16,0,0,1,.64-2.3,3.85,3.85,0,0,1,3.93-1.05,3.12,3.12,0,0,1,2,3.52,4.82,4.82,0,0,1-1.52,2.23,7.15,7.15,0,0,0-.95,1.07,3.28,3.28,0,0,0-.44,2.69.52.52,0,0,1-.35.62Z"></path><path d="M319.35,184.68a.79.79,0,0,1-.29-.06,1.09,1.09,0,0,1-.5-1.37,2.39,2.39,0,0,1,.2-.43,1.47,1.47,0,0,0,.14-.33.5.5,0,1,1,1,.25,2.56,2.56,0,0,1-.19.47l.15,0a.7.7,0,0,1,.27.94A.88.88,0,0,1,319.35,184.68Zm.16-.94h0Z"></path><path d="M254.15,209.37H254a.51.51,0,0,1-.46-.32.53.53,0,0,1,.12-.55,16.31,16.31,0,0,0,3.74-5.3.5.5,0,0,1,.66-.25.49.49,0,0,1,.25.66,17.58,17.58,0,0,1-3.07,4.72,14.78,14.78,0,0,0,4-.9.5.5,0,0,1,.65.29.52.52,0,0,1-.29.65A15.7,15.7,0,0,1,254.15,209.37Z"></path><path d="M258.56,211.38a.5.5,0,0,1-.5-.5v-5.74a.5.5,0,0,1,1,0v5.74A.5.5,0,0,1,258.56,211.38Z"></path><path d="M259.61,214.92h-.11a.52.52,0,0,1-.45-.55.51.51,0,0,1,.55-.45c.06,0,.2-.07.4-.41a9.4,9.4,0,0,0,.66-8.31c-.11-.29-.24-.57-.37-.85a7.48,7.48,0,0,1-.83-2.56.5.5,0,0,1,1-.09,6.68,6.68,0,0,0,.75,2.23c.13.3.27.59.39.89a10.49,10.49,0,0,1-.73,9.21A1.52,1.52,0,0,1,259.61,214.92Z"></path><path d="M266.18,209a.5.5,0,0,1-.2-1,18.07,18.07,0,0,0,5.82-4,.47.47,0,0,1,.6-.09.5.5,0,0,1,.24.57,1.12,1.12,0,0,0,1.76.93.5.5,0,0,1,.47-.17.48.48,0,0,1,.38.32l.57,1.54a25.55,25.55,0,0,0,3.49-1.48.5.5,0,0,1,.72.33l.13.58,3.13-2.87a.51.51,0,0,1,.37-.13.6.6,0,0,1,.36.19,5.63,5.63,0,0,1,1,2.17,1.5,1.5,0,0,0,1.06-.42.5.5,0,0,1,.45-.13.52.52,0,0,1,.37.29c.05.13.27.23.64.31a11.26,11.26,0,0,0,6.27-.46l.23-.09a3.81,3.81,0,0,1,2.34-.36,3.13,3.13,0,0,1,.81.34,3.76,3.76,0,0,0,.54.25,3.26,3.26,0,0,0,1.7-.13,7,7,0,0,1,1.31-.23,2.39,2.39,0,0,1,2.18,1.35,1.46,1.46,0,0,1,.12.64c.14,0,.3-.13.49-.22a1.87,1.87,0,0,1,2-.17,2.16,2.16,0,0,1,.4.4.74.74,0,0,0,.19.2c.07,0,.33-.17.43-.24,1.74-1.3,3.86-1.1,5.92-.91,1.86.17,3.62.34,5-.51a.49.49,0,0,1,.68.17.5.5,0,0,1-.17.69c-1.69,1-3.69.83-5.63.64s-3.8-.35-5.19.68a1.54,1.54,0,0,1-1.35.44,1.39,1.39,0,0,1-.69-.53,1.41,1.41,0,0,0-.19-.21c-.18-.12-.49,0-.95.25a2,2,0,0,1-1.93.21.49.49,0,0,1-.24-.37.5.5,0,0,1,.15-.42c.07-.06.14-.15,0-.35a1.4,1.4,0,0,0-1.21-.74,5.19,5.19,0,0,0-1.12.2,4.11,4.11,0,0,1-2.23.11,4.22,4.22,0,0,1-.71-.31,3.1,3.1,0,0,0-.6-.27,3,3,0,0,0-1.73.33l-.24.09a12.33,12.33,0,0,1-6.83.51,2.36,2.36,0,0,1-1-.4,2.46,2.46,0,0,1-1.89.29.49.49,0,0,1-.37-.4,4.2,4.2,0,0,0-.58-1.62l-3.35,3.07a.51.51,0,0,1-.49.11.53.53,0,0,1-.34-.37l-.17-.8a26.18,26.18,0,0,1-3.53,1.4.49.49,0,0,1-.61-.31l-.51-1.38a2.07,2.07,0,0,1-1.77-.14,2.21,2.21,0,0,1-1-1,19.28,19.28,0,0,1-5.42,3.56A.79.79,0,0,1,266.18,209Z"></path><path d="M268.17,223.72a.54.54,0,0,1-.41-.21l-.48-.69a.5.5,0,0,1,.12-.7.51.51,0,0,1,.7.12l.2.29a9.76,9.76,0,0,0,2.3-2.28.49.49,0,0,1,.66-.13,2.2,2.2,0,0,1,.7.69l1.89-.67a.49.49,0,0,1,.66.39,1.16,1.16,0,0,0,.31.66s0-.09.07-.13a1.29,1.29,0,0,1,.5-.38,1.2,1.2,0,0,1,1.43.67l.12.21c.1.18.19.36.29.41s.23.05.58-.1a12.49,12.49,0,0,0,1.2-.62,5.22,5.22,0,0,1,3.36-1,.51.51,0,0,1,.42.57.51.51,0,0,1-.57.42,4.41,4.41,0,0,0-2.72.87,11.37,11.37,0,0,1-1.3.67,1.7,1.7,0,0,1-1.43.07,1.73,1.73,0,0,1-.71-.83l-.1-.17a.47.47,0,0,0-.24-.24s-.05.07-.09.11a1.33,1.33,0,0,1-.45.37.92.92,0,0,1-.84,0,1.56,1.56,0,0,1-.65-.8l-1.83.64a.48.48,0,0,1-.39,0,.51.51,0,0,1-.26-.3,1,1,0,0,0-.14-.3,10.94,10.94,0,0,1-2.63,2.36A.53.53,0,0,1,268.17,223.72Z"></path><path d="M289.88,225.66a.5.5,0,0,1-.48-.34,3,3,0,0,1,1-3,9.84,9.84,0,0,1,1.31-1,10.69,10.69,0,0,0,.95-.66,2.32,2.32,0,0,0,1-1.89c-.1-.9-1.17-1.5-2.14-1.57a1.49,1.49,0,0,0-.86.14c-.16.1-.26.31-.21.42a.51.51,0,0,1-.28.66.5.5,0,0,1-.65-.28,1.38,1.38,0,0,1,.6-1.64,2.39,2.39,0,0,1,1.47-.3,3.13,3.13,0,0,1,3.06,2.45,3.21,3.21,0,0,1-1.39,2.79c-.33.26-.68.49-1,.72a9,9,0,0,0-1.18.86,2,2,0,0,0-.74,1.93.5.5,0,0,1-.32.64Z"></path><path d="M290.59,231a.44.44,0,0,1-.16,0l-.59-.2a.49.49,0,0,1-.32-.63.51.51,0,0,1,.63-.32l.6.2a.5.5,0,0,1-.16,1Z"></path><path d="M254.3,252.14a2.43,2.43,0,0,1-.38,0,.5.5,0,0,1-.41-.57.51.51,0,0,1,.58-.42,2.31,2.31,0,0,0,1.83-.77c.27-.22.69-.64.61-1s-.51-.45-.85-.39a3.27,3.27,0,0,0-1.31.77.52.52,0,0,1-.51.07.51.51,0,0,1-.3-.42,23.56,23.56,0,0,1,.1-4.75.5.5,0,0,1,.49-.44h3a.5.5,0,0,1,0,1H254.6a22.67,22.67,0,0,0-.1,3.19,2.81,2.81,0,0,1,1-.4,1.7,1.7,0,0,1,2,1.15,2.07,2.07,0,0,1-.94,2A3.59,3.59,0,0,1,254.3,252.14Z"></path><path d="M257.17,256.06a.5.5,0,0,1-.22-.95,4.91,4.91,0,0,0,2.39-3,11.17,11.17,0,0,0,.31-4.15,7.19,7.19,0,0,0-1.43-4.31.48.48,0,0,1,0-.7.49.49,0,0,1,.7,0,8,8,0,0,1,1.7,4.9,12.5,12.5,0,0,1-.35,4.53,6,6,0,0,1-2.91,3.63A.54.54,0,0,1,257.17,256.06Z"></path><path d="M298.26,250.44a.52.52,0,0,1-.29-.09.5.5,0,0,1-.2-.48c0-.14-.28-.36-.8-.5-2.43-.62-5.18-1.18-7.08.25a.51.51,0,0,1-.53,0,.48.48,0,0,1-.27-.44.47.47,0,0,0-.2-.41,2.93,2.93,0,0,0-2.14-.17l-3,.75a.51.51,0,0,1-.53-.21l-.49-.71a7.11,7.11,0,0,1-4,1.36.5.5,0,0,1-.49-.35l-.69-2.33a18.12,18.12,0,0,1-3.95,2.24.51.51,0,0,1-.69-.5,2.62,2.62,0,0,0-.12-1,2.19,2.19,0,0,1-.48.37,2,2,0,0,1-1.59.19,2,2,0,0,1-1.18-1.15,2.12,2.12,0,0,1-.14-.55L266,248.32a.5.5,0,0,1-.42-.91l4.22-1.91a.51.51,0,0,1,.57.12.48.48,0,0,1,.08.57.92.92,0,0,0,0,.78.89.89,0,0,0,1.35.46,1.05,1.05,0,0,0,.51-.65.5.5,0,0,1,.89-.18,3.66,3.66,0,0,1,.65,1.58,16.87,16.87,0,0,0,3.63-2.27.51.51,0,0,1,.46-.09.52.52,0,0,1,.34.34l.79,2.65a6.14,6.14,0,0,0,3.43-1.45.5.5,0,0,1,.39-.11.47.47,0,0,1,.35.21l.6.87,2.69-.66a3.82,3.82,0,0,1,3,.35,1.79,1.79,0,0,1,.37.41c2.17-1.2,4.91-.65,7.34,0a2.35,2.35,0,0,1,1.34.78c.31-.19.61-.4.93-.62a16.48,16.48,0,0,1,1.77-1.1,8,8,0,0,1,7.19.1.5.5,0,0,1,.21.68.5.5,0,0,1-.68.2,7,7,0,0,0-6.27-.08,14.52,14.52,0,0,0-1.65,1,16.42,16.42,0,0,1-1.56,1A.5.5,0,0,1,298.26,250.44Z"></path><path d="M316.84,253.62a.5.5,0,0,1-.43-.25,2.6,2.6,0,0,1,.62-3,7.74,7.74,0,0,1,1.44-1.08c.27-.17.53-.34.78-.52a2.38,2.38,0,0,0,1.1-1.77,1.92,1.92,0,0,0-.16-.6,2.83,2.83,0,0,0-2.53-1.6h0l0,1.51a.51.51,0,0,1-.5.49h0a.49.49,0,0,1-.49-.5l0-2a.51.51,0,0,1,.41-.49A3.82,3.82,0,0,1,321.1,246a2.74,2.74,0,0,1,.25.95,3.28,3.28,0,0,1-1.5,2.63c-.27.2-.56.38-.84.56a7.34,7.34,0,0,0-1.27.94,1.64,1.64,0,0,0-.47,1.82.5.5,0,0,1-.17.68A.48.48,0,0,1,316.84,253.62Z"></path><path d="M317.11,258.06a.51.51,0,0,1-.43-.24l-.59-1a.49.49,0,0,1,.17-.69.5.5,0,0,1,.68.17l.6,1a.51.51,0,0,1-.17.69A.59.59,0,0,1,317.11,258.06Z"></path></g><path d="M321.87,211.77c-1.47,1.84-2.69,3.89-4.32,5.71a3,3,0,0,0-.67,1.19,7,7,0,0,1-3.81-.58c-4.59-2.06-8.78-5.54-12.41-9-.77-.73-1.58-1.43-2.37-2.12,3.59,4,7.17,8,10.8,12a5.78,5.78,0,0,1,1.62,4.19,39.46,39.46,0,0,1-5.52,5.22,3.77,3.77,0,0,0-.92,1,5.4,5.4,0,0,1-3.66-1.87c-7.77-8.45-15.47-16.74-24.05-24.31.68,1,1.38,1.92,2.05,2.91,4.5,6.68,9.33,13.11,14.36,19.41,3.55,4.43,9.68,9.89,10.82,15.77l-.71.86c-.32.38-.65.74-1,1.09a2.33,2.33,0,0,0-.89.35c-1.51,1-2.47,3-1.26,4.65a3.86,3.86,0,0,0,.94.91c1.83,2.3,3.62,4.63,5.33,7a4.25,4.25,0,0,1,.25.39c-1.23,3.51-4.15,6.06-7,8.47a5.23,5.23,0,0,1-2.67-1.59c-3.43-3.72-7.35-7-10.52-10.93-3.4-4.22-6.21-8.88-9.44-13.23l-.16-.2c-3.91-4.35-7.83-8.69-11.62-13.13-3.31-3.34-6.68-6.61-9.91-9.88-5.14-5.22-10.37-10.46-15.8-15.46,1.35,2,2.7,4,4.08,6,6.11,8.7,12.89,16.91,19.43,25.28,3.22,4.13,6.17,8.45,9.3,12.64,2.46,3.3,6.15,6.32,8.09,9.95a6.53,6.53,0,0,1,.76,2.34,4,4,0,0,0-.6.63,17.29,17.29,0,0,1-5.92,4.52,2.78,2.78,0,0,0-1.19,1.13,6.5,6.5,0,0,1-2.47-1.35,95.07,95.07,0,0,1-8.67-8.49,21.23,21.23,0,0,1,2.1,4.67c1.54,5.25-4.31,9.11-8.81,6.78l-.39-.21a6.61,6.61,0,0,1-7.51,4.34c-1.74,2.31-4.78,3.53-7.5,1.45-11.25-8.6-22-18.12-32.6-27.49l-2.88-2.57c1.84,2.86,3.76,5.61,5.94,8.37,2.44,3.09,5.84,6.32,7.13,10.16a4.5,4.5,0,0,0-.37.28,34.52,34.52,0,0,0-6.84,8.78l0,.08c-4.74-1.06-9.69-4.12-13.7-6.43a99.34,99.34,0,0,1-14.57-10.52,3.78,3.78,0,0,0-.26-1.45,5.5,5.5,0,0,0-.38-.77l0-.85a14.18,14.18,0,0,0,.93-2.41,4.31,4.31,0,0,0,1.8-1.58,4.85,4.85,0,0,0,.61-2.5c0-.24-.07-.47-.1-.71a2.72,2.72,0,0,0,.9-1.37,6.18,6.18,0,0,1,2.94,1.44q1.88,1.62,3.81,3.17c-1.64-2.74-3.21-5.53-4.8-8.2-2.78-4.69-5.72-9.25-8.91-13.68-2.43-3.38-5.7-6.32-6.09-10.06,2.26-1.92,3.84-4.34,5.8-6.56.1-.12.19-.25.28-.38a11.27,11.27,0,0,1,5.7,2.1c-.52-.62-1-1.25-1.51-1.9-4.3-5.89-10.37-10.63-14.26-16.76a6.4,6.4,0,0,1-.93-2.29l1.35-1.71a3.28,3.28,0,0,0,.65-3.21l.1-.08-.48-.57,0,0a7.15,7.15,0,0,1-1.36-2.78,31,31,0,0,1,6.61-7.43c3.53.26,6.66,2.55,9.76,4.35,2.13,1.22,4.24,2.47,6.34,3.77a20.24,20.24,0,0,1-2.65-4.36,7,7,0,0,1-.51-1.89,5.5,5.5,0,0,0,.5-.34,50.56,50.56,0,0,0,7.24-6.41,6.36,6.36,0,0,1,1,.43,56.47,56.47,0,0,1,5.95,3.73,8.47,8.47,0,0,1-.47-2.73,3.3,3.3,0,0,0,2.65-.8c1.7-1.46,3.08-3.35,4.78-4.84a5.09,5.09,0,0,1,1.53.68c4.47,3,8.25,7,12.52,10.31,1.07.83,2.15,1.65,3.23,2.47a6.43,6.43,0,0,1-.3-2.64,3,3,0,0,0,1.16-.6c2.05-1.65,4.06-3.35,6.08-5a6.31,6.31,0,0,1,1.46.78,50.14,50.14,0,0,1,5.72,4.78,6.14,6.14,0,0,1,.23-1.05,2.5,2.5,0,0,0,2.46-.21,49.29,49.29,0,0,0,4.73-3.85c2.37.63,4,2.35,5.92,3.79l1,.75a4.72,4.72,0,0,1,.41-.68,2.43,2.43,0,0,0,1.71-.41,22.77,22.77,0,0,0,2.31-2l.32-.29a5.72,5.72,0,0,1,2.44.06c4.37,1.17,8.29,4.19,12.05,6.84-.74-.86-1.48-1.71-2.2-2.59-2.74-3.38-6.76-7-8.16-11.3a2.94,2.94,0,0,0,.48-.6c.53-.85,1.11-1.72,1.74-2.57a22.4,22.4,0,0,0,5.52-4.55,6.16,6.16,0,0,1,.88.31c4.41,1.87,7.71,5.44,11,8.81,2.36,2.39,4.63,4.86,6.84,7.39a4.48,4.48,0,0,1,.5-.94,3.28,3.28,0,0,0,3.16-.67c.95-.78,2-1.5,3-2.23a6.21,6.21,0,0,1,4.61,2.49c4.92,6.4,18.74,23.87,14.13,33.73a29.47,29.47,0,0,1,5.72,7.65A7.48,7.48,0,0,1,321.87,211.77Z" style="fill:#fff;opacity:0.2"></path><path d="M178.41,206.69c1.38-1.73,2.53-3.65,4.06-5.35a3,3,0,0,0,.62-1.11,6.41,6.41,0,0,1,3.58.54c4.3,1.93,8.23,5.2,11.64,8.42.72.68,1.47,1.33,2.22,2-3.37-3.76-6.73-7.52-10.13-11.24a5.41,5.41,0,0,1-1.52-3.92,37,37,0,0,1,5.18-4.91,3.59,3.59,0,0,0,.86-.88,5,5,0,0,1,3.43,1.75c7.29,7.92,14.5,15.7,22.55,22.8-.64-.91-1.3-1.8-1.92-2.73-4.22-6.27-8.75-12.3-13.47-18.2-3.33-4.16-9.07-9.28-10.14-14.79l.67-.81c.29-.35.6-.69.92-1a2.39,2.39,0,0,0,.84-.32c1.41-.93,2.31-2.82,1.18-4.37a3.59,3.59,0,0,0-.89-.85c-1.71-2.16-3.39-4.34-5-6.59-.09-.12-.16-.24-.24-.37,1.16-3.29,3.89-5.68,6.56-7.94a4.86,4.86,0,0,1,2.51,1.49c3.22,3.49,6.89,6.55,9.87,10.25,3.18,4,5.82,8.33,8.85,12.4l.15.2c3.66,4.07,7.34,8.14,10.89,12.3,3.1,3.14,6.27,6.2,9.29,9.27,4.83,4.89,9.73,9.8,14.82,14.49-1.26-1.87-2.53-3.73-3.83-5.58-5.73-8.15-12.09-15.85-18.22-23.7-3-3.87-5.78-7.92-8.71-11.85-2.31-3.1-5.77-5.93-7.59-9.33a6.14,6.14,0,0,1-.71-2.2,3.51,3.51,0,0,0,.56-.59,16.35,16.35,0,0,1,5.55-4.23,2.54,2.54,0,0,0,1.11-1.06,6.07,6.07,0,0,1,2.33,1.26,89.71,89.71,0,0,1,8.12,8,20.29,20.29,0,0,1-2-4.39c-1.44-4.92,4.05-8.54,8.26-6.35.13.06.25.13.37.2a6.2,6.2,0,0,1,7-4.07c1.63-2.17,4.49-3.31,7-1.36,10.55,8.06,20.6,17,30.56,25.77l2.7,2.42c-1.72-2.69-3.53-5.27-5.57-7.86-2.29-2.89-5.47-5.92-6.68-9.52a4,4,0,0,0,.34-.27,31.9,31.9,0,0,0,6.42-8.23l0-.08c4.45,1,9.09,3.87,12.85,6A93.57,93.57,0,0,1,309.46,170a3.72,3.72,0,0,0,.25,1.36,4.79,4.79,0,0,0,.35.72c0,.27,0,.53,0,.8a13,13,0,0,0-.88,2.26,4.11,4.11,0,0,0-1.69,1.48,4.45,4.45,0,0,0-.56,2.34l.09.67a2.5,2.5,0,0,0-.85,1.28,5.74,5.74,0,0,1-2.75-1.34q-1.77-1.53-3.58-3c1.54,2.57,3,5.18,4.5,7.69,2.61,4.4,5.37,8.67,8.36,12.83,2.28,3.17,5.34,5.92,5.71,9.43-2.12,1.8-3.6,4.07-5.44,6.16a2.88,2.88,0,0,0-.26.35,10.58,10.58,0,0,1-5.34-2c.49.58,1,1.17,1.41,1.78,4,5.52,9.72,10,13.37,15.72a5.9,5.9,0,0,1,.87,2.15l-1.26,1.59a3,3,0,0,0-.61,3l-.09.08c.14.18.3.35.44.53l0,0a6.58,6.58,0,0,1,1.27,2.6,29.4,29.4,0,0,1-6.19,7c-3.31-.25-6.25-2.4-9.16-4.08-2-1.15-4-2.32-5.93-3.54a19.41,19.41,0,0,1,2.48,4.09,6.93,6.93,0,0,1,.48,1.78,4.76,4.76,0,0,0-.47.31,46.14,46.14,0,0,0-6.79,6,6.67,6.67,0,0,1-.92-.41,52.15,52.15,0,0,1-5.58-3.5,7.7,7.7,0,0,1,.44,2.56,3.12,3.12,0,0,0-2.48.75c-1.6,1.37-2.9,3.14-4.48,4.54a4.51,4.51,0,0,1-1.44-.64c-4.19-2.84-7.73-6.57-11.74-9.67l-3-2.31a6,6,0,0,1,.29,2.47,2.83,2.83,0,0,0-1.1.57c-1.92,1.54-3.8,3.14-5.7,4.71a5.54,5.54,0,0,1-1.37-.73,47.66,47.66,0,0,1-5.36-4.48,6.32,6.32,0,0,1-.21,1,2.39,2.39,0,0,0-2.31.2,47.51,47.51,0,0,0-4.44,3.61c-2.22-.59-3.75-2.2-5.55-3.55-.3-.24-.61-.47-.92-.7a6.08,6.08,0,0,1-.39.64,2.24,2.24,0,0,0-1.6.38,21.1,21.1,0,0,0-2.17,1.84l-.29.27a5.5,5.5,0,0,1-2.29-.06c-4.11-1.1-7.78-3.93-11.3-6.42.69.81,1.38,1.61,2.05,2.44,2.58,3.16,6.35,6.59,7.66,10.59a2.83,2.83,0,0,0-.45.56c-.5.81-1,1.62-1.63,2.41a21.13,21.13,0,0,0-5.18,4.27,6.69,6.69,0,0,1-.82-.29c-4.14-1.75-7.23-5.1-10.33-8.26-2.21-2.24-4.34-4.56-6.41-6.93a4.39,4.39,0,0,1-.47.88,3,3,0,0,0-3,.63c-.89.73-1.85,1.41-2.8,2.09a5.83,5.83,0,0,1-4.33-2.34c-4.62-6-17.57-22.37-13.25-31.62a27.87,27.87,0,0,1-5.36-7.17A7,7,0,0,1,178.41,206.69Z" style="fill:#fff;opacity:0.2"></path></g><g id="freepik--trash-bin--inject-40"><path d="M299.76,397.52a2.4,2.4,0,0,0-1.93-3.44,5.15,5.15,0,0,0-1.63-5.62,1.18,1.18,0,0,0-.71-.31,1.4,1.4,0,0,0-.76.33l-4.49,3.23a2.61,2.61,0,0,0-.89.89c-.92,1.78,2.39,4.06,1,5.53-.39.42-1,.51-1.51.81-1.07.67-1.2,2.14-1.7,3.3s-2.24,2.06-2.9,1c.49-1.11-1-2.07-2.21-2.21s-2.47-.21-3.13-1.34c-1.72,1.49-5.55-2.69-5.46-4.37a3.32,3.32,0,0,0-2.68,2.75,19.51,19.51,0,0,0-.14,4.19c0,2.73-.93,5.4-.88,8.13,0,2.12.86,4.48,2.8,5.33a7.45,7.45,0,0,0,3,.41l22.13-.14a3.57,3.57,0,0,0,1.56-.26c1-.52,1.21-1.83,1.3-3q.6-7.2,1.19-14.42Z" style="fill:#40D7FF"></path><path d="M299.76,397.52a2.4,2.4,0,0,0-1.93-3.44,5.15,5.15,0,0,0-1.63-5.62,1.18,1.18,0,0,0-.71-.31,1.4,1.4,0,0,0-.76.33l-4.49,3.23a2.61,2.61,0,0,0-.89.89c-.92,1.78,2.39,4.06,1,5.53-.39.42-1,.51-1.51.81-1.07.67-1.2,2.14-1.7,3.3s-2.24,2.06-2.9,1c.49-1.11-1-2.07-2.21-2.21s-2.47-.21-3.13-1.34c-1.72,1.49-5.55-2.69-5.46-4.37a3.32,3.32,0,0,0-2.68,2.75,19.51,19.51,0,0,0-.14,4.19c0,2.73-.93,5.4-.88,8.13,0,2.12.86,4.48,2.8,5.33a7.45,7.45,0,0,0,3,.41l22.13-.14a3.57,3.57,0,0,0,1.56-.26c1-.52,1.21-1.83,1.3-3q.6-7.2,1.19-14.42Z" style="fill:#fff;isolation:isolate;opacity:0.30000000000000004"></path><path d="M301.05,374.14H266.71l.29,3.47.2,2.47.52,6.45.3,3.7.4,4.93.17,2.11.05.63.2,2.49.28,3.4.17,2.11.17,2.15.21,2.48.15,1.88.17,2.12.07.92h31.51l.07-.92.17-2.11.16-1.89.2-2.49.18-2.14.17-2.11.27-3.41.2-2.48.05-.63.17-2.11.4-4.93.3-3.69.52-6.46.2-2.47.28-3.47Zm2.06,2.27h0l-.66-.66h.72Zm-.17,2.11-.06.84-3.07,3.07-3.53-3.53,3.15-3.15h.75Zm-.88,11-2.25,2.25-3.53-3.52,3.53-3.52,2.43,2.44Zm-32.68-2.35h0l2.44-2.44,3.53,3.52-3.53,3.52-2.24-2.25Zm29.29-3.58-3.53,3.52-3.52-3.52,3.52-3.53Zm-5.54-7.82h4l-2,2Zm.87,12.48-3.52,3.52L287,388.23l3.53-3.52Zm-11.71,4.66,3.53-3.51,3.51,3.51-3.51,3.53Zm2.38,4.67-3.52,3.52-3.52-3.52,3.52-3.52Zm5.81-3.52,3.52,3.52-3.52,3.52L287,397.56Zm-4.66-7-3.53-3.52,3.53-3.53,3.51,3.53Zm-1.15,1.14-3.52,3.52-3.52-3.52,3.52-3.52Zm-8.19-1.14L273,383.57l3.51-3.53,3.53,3.53Zm0,2.29,3.53,3.51-3.53,3.53L273,392.89ZM280,402.23l-3.53,3.51L273,402.23l3.51-3.53Zm1.14,1.13,3.52,3.53-3.52,3.52-3.52-3.52Zm1.14-1.13,3.53-3.53,3.51,3.53-3.51,3.51Zm8.19,1.13,3.52,3.53-3.52,3.52L287,406.89Zm4.66,4.67,3.53,3.52-2.29,2.28H293.9l-2.28-2.28Zm-3.52-5.8,3.52-3.53,3.53,3.53-3.53,3.51Zm0-9.34,3.52-3.51,3.53,3.51-3.53,3.53Zm2.38-14-3.52,3.53L287,378.9l3.16-3.15h.74Zm-8.18-1.13-2-2h4Zm-1.15,1.13-3.52,3.53-3.52-3.53,3.15-3.15h.74Zm-6.17-3.15-2,2-2-2Zm-6.31,0,3.16,3.15-3.53,3.53-3.07-3.07-.06-.84,2.76-2.77Zm-3,0-.65.65h0l-.06-.65Zm-.21,6.09,1.72,1.73L269.21,385Zm1,11.82-.14-1.67h0l.9.9-.76.77Zm.17,2.12,1.73-1.74,3.53,3.52-3.53,3.52-1.42-1.42Zm.52,6.52v-.15l.08.08-.07.07Zm.61,7.51-.44-5.41,1-1,3.53,3.53-3.53,3.52-.6-.6Zm.33,4-.07-.8.34-.34,1.15,1.14Zm1.42-2.28,3.51-3.52,3.53,3.52-2.28,2.28h-2.49Zm7,2.28,1.14-1.14,1.15,1.14Zm4.56,0-2.28-2.28,3.53-3.52,3.51,3.52-2.27,2.28Zm4.76,0,1.15-1.14,1.14,1.14Zm10.75,0h-1.42l1.15-1.14.33.34Zm.33-4-.6.6-3.53-3.52,3.53-3.53,1,1Zm.62-7.67v.16l-.08-.07.09-.09Zm.2-2.48-1.42,1.42-3.53-3.52,3.53-3.52,1.74,1.74Zm.49-6-.78-.78.91-.9Zm1-11.84-.26,3.21-1.48-1.47,1.74-1.74Z" style="fill:#40D7FF"></path><g style="isolation:isolate;opacity:0.6000000000000001"><path d="M301.05,374.14H266.71l.29,3.47.2,2.47.52,6.45.3,3.7.4,4.93.17,2.11.05.63.2,2.49.28,3.4.17,2.11.17,2.15.21,2.48.15,1.88.17,2.12.07.92h31.51l.07-.92.17-2.11.16-1.89.2-2.49.18-2.14.17-2.11.27-3.41.2-2.48.05-.63.17-2.11.4-4.93.3-3.69.52-6.46.2-2.47.28-3.47Zm2.06,2.27h0l-.66-.66h.72Zm-.17,2.11-.06.84-3.07,3.07-3.53-3.53,3.15-3.15h.75Zm-.88,11-2.25,2.25-3.53-3.52,3.53-3.52,2.43,2.44Zm-32.68-2.35h0l2.44-2.44,3.53,3.52-3.53,3.52-2.24-2.25Zm29.29-3.58-3.53,3.52-3.52-3.52,3.52-3.53Zm-5.54-7.82h4l-2,2Zm.87,12.48-3.52,3.52L287,388.23l3.53-3.52Zm-11.71,4.66,3.53-3.51,3.51,3.51-3.51,3.53Zm2.38,4.67-3.52,3.52-3.52-3.52,3.52-3.52Zm5.81-3.52,3.52,3.52-3.52,3.52L287,397.56Zm-4.66-7-3.53-3.52,3.53-3.53,3.51,3.53Zm-1.15,1.14-3.52,3.52-3.52-3.52,3.52-3.52Zm-8.19-1.14L273,383.57l3.51-3.53,3.53,3.53Zm0,2.29,3.53,3.51-3.53,3.53L273,392.89ZM280,402.23l-3.53,3.51L273,402.23l3.51-3.53Zm1.14,1.13,3.52,3.53-3.52,3.52-3.52-3.52Zm1.14-1.13,3.53-3.53,3.51,3.53-3.51,3.51Zm8.19,1.13,3.52,3.53-3.52,3.52L287,406.89Zm4.66,4.67,3.53,3.52-2.29,2.28H293.9l-2.28-2.28Zm-3.52-5.8,3.52-3.53,3.53,3.53-3.53,3.51Zm0-9.34,3.52-3.51,3.53,3.51-3.53,3.53Zm2.38-14-3.52,3.53L287,378.9l3.16-3.15h.74Zm-8.18-1.13-2-2h4Zm-1.15,1.13-3.52,3.53-3.52-3.53,3.15-3.15h.74Zm-6.17-3.15-2,2-2-2Zm-6.31,0,3.16,3.15-3.53,3.53-3.07-3.07-.06-.84,2.76-2.77Zm-3,0-.65.65h0l-.06-.65Zm-.21,6.09,1.72,1.73L269.21,385Zm1,11.82-.14-1.67h0l.9.9-.76.77Zm.17,2.12,1.73-1.74,3.53,3.52-3.53,3.52-1.42-1.42Zm.52,6.52v-.15l.08.08-.07.07Zm.61,7.51-.44-5.41,1-1,3.53,3.53-3.53,3.52-.6-.6Zm.33,4-.07-.8.34-.34,1.15,1.14Zm1.42-2.28,3.51-3.52,3.53,3.52-2.28,2.28h-2.49Zm7,2.28,1.14-1.14,1.15,1.14Zm4.56,0-2.28-2.28,3.53-3.52,3.51,3.52-2.27,2.28Zm4.76,0,1.15-1.14,1.14,1.14Zm10.75,0h-1.42l1.15-1.14.33.34Zm.33-4-.6.6-3.53-3.52,3.53-3.53,1,1Zm.62-7.67v.16l-.08-.07.09-.09Zm.2-2.48-1.42,1.42-3.53-3.52,3.53-3.52,1.74,1.74Zm.49-6-.78-.78.91-.9Zm1-11.84-.26,3.21-1.48-1.47,1.74-1.74Z" style="fill:#fff"></path></g><rect x="264.52" y="372.7" width="42.6" height="4.49" rx="1.64" transform="translate(571.63 749.89) rotate(180)" style="fill:#40D7FF"></rect><rect x="267.59" y="413.03" width="36.45" height="4.49" rx="1.64" style="fill:#40D7FF"></rect></g><g id="freepik--character-2--inject-40"><path d="M388.93,330H371.05a1.11,1.11,0,0,1-1.08-.85l-2.53-10.42H359.5l3.25,12.7a4.35,4.35,0,0,0,4.23,3.29h21.95Z" style="fill:#263238"></path><path d="M388.93,330H371.05a1.11,1.11,0,0,1-1.08-.85l-2.53-10.42H359.5l3.25,12.7a4.35,4.35,0,0,0,4.23,3.29h21.95Z" style="fill:#fff;isolation:isolate;opacity:0.4"></path><rect x="353.93" y="330.67" width="68.94" height="4.77" transform="translate(5.73 672.67) rotate(-82.2)" style="fill:#263238"></rect><rect x="383.48" y="330.67" width="68.94" height="4.77" transform="translate(31.27 701.94) rotate(-82.2)" style="fill:#263238"></rect><g style="isolation:isolate;opacity:0.30000000000000004"><rect x="353.93" y="330.67" width="68.94" height="4.77" transform="translate(5.73 672.67) rotate(-82.2)" style="fill:#fff"></rect></g><g style="isolation:isolate;opacity:0.4"><rect x="383.48" y="330.67" width="68.94" height="4.77" transform="translate(31.27 701.94) rotate(-82.2)" style="fill:#fff"></rect></g><polygon points="387.15 417.16 380.51 417.16 379.69 382.04 379.35 367.2 388.31 367.2 387.96 382.04 387.15 417.16" style="fill:#263238"></polygon><polygon points="387.15 417.16 380.51 417.16 379.69 382.04 379.35 367.2 388.31 367.2 387.96 382.04 387.15 417.16" style="fill:#fff;isolation:isolate;opacity:0.4"></polygon><polygon points="379.35 367.2 379.69 382.45 387.97 382.45 388.31 367.2 379.35 367.2" style="isolation:isolate;opacity:0.2"></polygon><polygon points="353.22 417.16 356.11 368.25 363.9 368.25 359.86 417.16 353.22 417.16" style="fill:#263238"></polygon><polygon points="359.86 417.16 353.23 417.16 355.68 375.49 356.11 368.15 363.89 368.15 363.29 375.49 359.86 417.16" style="fill:#fff;isolation:isolate;opacity:0.5"></polygon><polygon points="363.89 368.15 363.3 375.78 355.68 375.78 356.11 368.15 363.89 368.15" style="isolation:isolate;opacity:0.2"></polygon><polygon points="407.81 417.16 403.76 368.25 411.55 368.25 414.44 417.16 407.81 417.16" style="fill:#263238"></polygon><polygon points="407.8 417.16 404.37 375.49 403.77 368.15 411.56 368.15 411.98 375.49 414.44 417.16 407.8 417.16" style="fill:#fff;isolation:isolate;opacity:0.5"></polygon><polygon points="403.77 368.15 404.37 375.78 411.98 375.78 411.56 368.15 403.77 368.15" style="isolation:isolate;opacity:0.2"></polygon><path d="M351.94,359.89h63.78a0,0,0,0,1,0,0v6.24a4.9,4.9,0,0,1-4.9,4.9h-54a4.9,4.9,0,0,1-4.9-4.9v-6.24a0,0,0,0,1,0,0Z" transform="translate(767.66 730.93) rotate(180)" style="fill:#263238"></path><rect x="348.88" y="365.46" width="69.9" height="5.57" rx="1.97" transform="translate(767.66 736.5) rotate(180)" style="fill:#263238"></rect><rect x="348.88" y="365.46" width="69.9" height="5.57" rx="1.97" transform="translate(767.66 736.5) rotate(180)" style="fill:#fff;isolation:isolate;opacity:0.6000000000000001"></rect><path d="M387.49,321.73h35.63a3.87,3.87,0,0,0,3.83-3.37l2.52-19.73a3,3,0,0,0-3-3.36H390.89a3.86,3.86,0,0,0-3.83,3.36l-2.52,19.74A3,3,0,0,0,387.49,321.73Z" style="fill:#263238"></path><path d="M387.49,321.73h35.63a3.87,3.87,0,0,0,3.83-3.37l2.52-19.73a3,3,0,0,0-3-3.36H390.89a3.86,3.86,0,0,0-3.83,3.36l-2.52,19.74A3,3,0,0,0,387.49,321.73Z" style="fill:#fff;isolation:isolate;opacity:0.6000000000000001"></path><g id="freepik--group--inject-40"><path d="M364.91,288.21a109.1,109.1,0,0,1-9.41-15.86c-1.85-4.2-2.65-8.84-3.48-13.12-.62-3.41-1.08-6.83-1.43-10.29a2,2,0,0,1,4-.87c2.3,6.27,4.2,12.84,6.68,19a64.81,64.81,0,0,0,4.88,8.13c1.86,2.79,3.75,5.63,5.58,8.44a4.09,4.09,0,0,1-6.78,4.58Z" style="fill:#e9b376"></path><path d="M332.75,365.46c-1.9,3.92,41.1,5.57,41.1,5.57s-2.92-12.16-15.88-14S336,358.86,332.75,365.46Z" style="fill:#40D7FF"></path><path d="M332.75,365.46c-1.9,3.92,41.1,5.57,41.1,5.57s-2.92-12.16-15.88-14S336,358.86,332.75,365.46Z" style="isolation:isolate;opacity:0.2"></path><path d="M346.15,412l6.74-.72S347.38,372,350.09,368c2.3-3.29,13.19-4,28.54-4.75,2.86-.14,5.88-.28,9-.45,20-1-21.82-21.35-21.82-21.35s-23.07,6.65-30.06,15.87C329.35,365.83,346.15,412,346.15,412Z" style="fill:#ebb376"></path><path d="M346.15,412l6.74-.72S347.38,372,350.09,368c2.3-3.29,13.19-4,28.54-4.75,2.86-.14,5.88-.28,9-.45,20-1-21.82-21.35-21.82-21.35s-23.07,6.65-30.06,15.87C329.35,365.83,346.15,412,346.15,412Z" style="isolation:isolate;opacity:0.1"></path><path d="M344.73,408.68l8.57-.53a.54.54,0,0,1,.6.48h0l.84,6.77a1.34,1.34,0,0,1-1.25,1.43c-3,.14-4.43.06-8.21.26a70.71,70.71,0,0,1-10.08.32c-3.19-.31-2.8-3.46-1.42-3.61,3.27-.37,7.61-2.78,9.66-4.6A2.19,2.19,0,0,1,344.73,408.68Z" style="fill:#263238"></path><path d="M340.64,409.87a.94.94,0,0,1-.28-1,.66.66,0,0,1,.38-.53c.91-.42,3.17.92,3.43,1.07a.23.23,0,0,1,.08.18.16.16,0,0,1-.13.14,9.41,9.41,0,0,1-2,.41A2.07,2.07,0,0,1,340.64,409.87Zm.25-1.16a.32.32,0,0,0-.19.27.65.65,0,0,0,.17.62c.38.33,1.39.31,2.74,0-.92-.51-2.23-1.07-2.72-.85Z" style="fill:#40D7FF"></path><path d="M344,409.77c-.79-.4-2-1.93-1.9-2.77a.68.68,0,0,1,.61-.58,1,1,0,0,1,.78.2c.81.7.77,2.93.77,3a.19.19,0,0,1-.08.15h-.08A.11.11,0,0,1,344,409.77Zm-1.23-3c-.25,0-.31.17-.32.27a3.79,3.79,0,0,0,1.45,2.24,4,4,0,0,0-.65-2.39.51.51,0,0,0-.39-.14Z" style="fill:#40D7FF"></path><path d="M358.56,358.11c1.47-5.52,11.36-14.06,19.52-15.37l11.78,20.16c-12.35.5-16.15,4.11-16.43,5.25-1.33,5.48,2.86,43.85,2.86,43.85h-7.15S354.94,371.73,358.56,358.11Z" style="fill:#ebb376"></path><path d="M372.13,333.79s-21.67,8.86-31.45,17.16c-8,6.81-7.93,14.51-7.93,14.51a19.41,19.41,0,0,1,16.13-3.58c12.67,2.55,25,9.15,25,9.15s5.34-6.25,21.58-8,16.32-17.31,8.21-30Z" style="fill:#40D7FF"></path><path d="M368.55,408.68l8.58-.53a.54.54,0,0,1,.6.48h0l.84,6.77a1.34,1.34,0,0,1-1.25,1.43c-3,.14-4.43.06-8.21.26a70.71,70.71,0,0,1-10.08.32c-3.2-.31-2.8-3.46-1.42-3.61,3.27-.37,7.61-2.78,9.66-4.6A2.18,2.18,0,0,1,368.55,408.68Z" style="fill:#263238"></path><path d="M364.47,409.87a1,1,0,0,1-.29-1,.7.7,0,0,1,.38-.53c.92-.42,3.18.92,3.43,1.07a.18.18,0,0,1,.08.18.14.14,0,0,1-.12.14,9.37,9.37,0,0,1-2,.41A2.06,2.06,0,0,1,364.47,409.87Zm.25-1.16a.32.32,0,0,0-.19.27.65.65,0,0,0,.17.62c.38.33,1.39.31,2.74,0-.93-.51-2.24-1.07-2.72-.85Z" style="fill:#40D7FF"></path><path d="M367.81,409.77c-.79-.4-2-1.93-1.91-2.77a.69.69,0,0,1,.62-.58.93.93,0,0,1,.77.2c.82.7.78,2.93.78,3a.2.2,0,0,1-.09.15h-.07A.12.12,0,0,1,367.81,409.77Zm-1.23-3c-.25,0-.31.17-.32.27a3.7,3.7,0,0,0,1.45,2.24,4,4,0,0,0-.65-2.39.52.52,0,0,0-.39-.14Z" style="fill:#40D7FF"></path><path d="M358.66,282.42l8.51-6.55.15.12.2.14s0,0,0,0h0a0,0,0,0,0,0,0c.25.19.61.48,1.05.85l.43.34a1.09,1.09,0,0,0,.11.1l.45.39.6.53c1.11,1,7,5.94,7.95,7.15.16.22.32.43.46.65a7.82,7.82,0,0,1,.76,1.32.86.86,0,0,1,.07.21.38.38,0,0,1,.05.15,2.63,2.63,0,0,1,.08.3,1.57,1.57,0,0,1,0,.23l0,.19c0,.12,0,.25,0,.39s0,.28,0,.44,0,.29,0,.44a.57.57,0,0,1,0,.13h0c0,.11,0,.22,0,.34s0,.32,0,.49l-.06.51a4.67,4.67,0,0,1-.08.52c-.78,4.88-8.3,7.5-10.5,6.3-4.38-2.41-8.64-11.75-9.93-14.77C358.79,282.77,358.66,282.42,358.66,282.42Z" style="fill:#40D7FF"></path><path d="M379.69,289.4c0,.14,0,.29,0,.44a.48.48,0,0,1,0,.12h0c0,.12,0,.24,0,.35s0,.33,0,.49,0,.34-.06.51-.05.35-.07.52c-.65,4-5.92,6.53-9,6.59a3.19,3.19,0,0,1-1.53-.29,13,13,0,0,1-3.84-3.69c-.17-.22-.33-.44-.49-.67a61.89,61.89,0,0,1-5.61-10.4c-.26-.61-.4-1-.4-1l8.53-6.54.15.11.18.14,0,0h0c.25.18.61.47,1.05.84l.43.34.1.1c.15.12.3.24.46.39l.59.53c1.12,1,7,5.94,8,7.14.15.23.31.43.45.66a7.36,7.36,0,0,1,.77,1.32,1.8,1.8,0,0,1,.08.21.37.37,0,0,1,0,.15,2.17,2.17,0,0,1,.08.3c0,.07,0,.15.05.23a1.15,1.15,0,0,1,0,.19c0,.13,0,.25.05.39S379.68,289.24,379.69,289.4Z" style="fill:#fff;opacity:0.6000000000000001"></path><polygon points="357.93 281.94 366.51 274.48 367.74 275.35 368.17 275.65 367.56 276.16 367.49 276.22 359.05 283.37 358.82 283.57 357.93 281.94" style="fill:#40D7FF"></polygon><path d="M370.52,298.43a3.19,3.19,0,0,1-1.53-.29,13,13,0,0,1-3.84-3.69,14,14,0,0,1,4.82-4C372.14,293.08,371.35,295.83,370.52,298.43Z" style="isolation:isolate;opacity:0.2"></path><path d="M405.58,336.15s-.55-31.56-3.54-38-7.84-15.32-28.78-10.2c0,0-7.94,2.24-6.58,12s1.8,35.19,1.8,35.19Z" style="fill:#40D7FF"></path><path d="M366.67,299.94c.4,2.88.72,7.11,1,11.64.06,1.05.11,2.12.17,3.2.12,2.49.22,5,.31,7.36,0,.42,0,.83.05,1.23.21,6.59.31,11.76.31,11.76l37.1,1s-.55-31.58-3.55-38-7.83-15.33-28.77-10.2C373.26,287.92,365.32,290.15,366.67,299.94Z" style="fill:#fff;opacity:0.6000000000000001"></path><path d="M376.44,293.78,374,289.85l-3.33,3.93s.94-10.43,13.06-10.67a6,6,0,0,1,6.15,4.11c-2.13,3.43-7.76,7.16-7.76,7.16L379.89,291Z" style="fill:#40D7FF"></path><rect x="342.93" y="306.43" width="16.37" height="2.01" transform="translate(-62.1 524.36) rotate(-68.9)" style="fill:#263238"></rect><path d="M385.88,274.28a36.42,36.42,0,0,0-.3,7.15,12.92,12.92,0,0,0,1.07,4.66s-3.23,3.13-6.16,3.8l-3.23,2.4.21-3.27a3.65,3.65,0,0,0,0-.46c.08-1.27,0-5.24-3.61-6.73C369,279.76,385.88,274.28,385.88,274.28Z" style="fill:#ebb376"></path><path d="M385.88,274.28a36.42,36.42,0,0,0-.3,7.15c-2.05,3.06-4.68,6-8.07,7.13.08-1.27,0-5.24-3.61-6.73C369,279.76,385.88,274.28,385.88,274.28Z" style="isolation:isolate;opacity:0.2"></path><path d="M347.62,309.88l1.85-.78a2.32,2.32,0,0,1,2.14.16l3,1.85a4.36,4.36,0,0,1,2.06,3.44l.06.87c-3,1.51-7.33.94-7.33.94l-1.25,0a1.94,1.94,0,0,1-2-1.95l0-2.49A2.24,2.24,0,0,1,347.62,309.88Z" style="fill:#ebb376"></path><path d="M367.64,311.58c.06,1.05.11,2.12.17,3.2.12,2.49.22,5,.31,7.36,0,.42,0,.83.05,1.23,26.63-1.22,30.8-20.9,30.8-20.9s-6.91-7.21-10.79-6.43-12.67,11.4-12.67,11.4l.36,1.47C374.86,310,369.93,311.12,367.64,311.58Z" style="isolation:isolate;opacity:0.2"></path><path d="M395.55,304.61a54.65,54.65,0,0,1-18.49,13.95,11.4,11.4,0,0,1-4.14.49A69.89,69.89,0,0,1,359,317c-1.78-.45-3.54-.9-5.31-1.46a2,2,0,0,1,.72-4c2.66.13,8,.36,10.65.46,3.22,0,6.47.29,9.6-.36l-.74.26a43.64,43.64,0,0,0,4.14-2.59,83,83,0,0,0,11.43-10.17c3.72-3.71,9.38,1.44,6,5.5Z" style="fill:#e9b376"></path><path d="M396.94,291.39c-6-5.51-18.08,15-18.08,15l7.33,9S409.87,303.32,396.94,291.39Z" style="fill:#40D7FF"></path><path d="M396.94,291.39c-6-5.51-18.08,15-18.08,15l7.33,9S409.87,303.32,396.94,291.39Z" style="fill:#fff;opacity:0.6000000000000001"></path><polygon points="387.72 315.85 378.86 305.07 377.22 307.46 384.88 317.63 387.72 315.85" style="fill:#40D7FF"></polygon><path d="M392.56,258.27s3.52-4.45,11-3,10.73,10.34,4.11,19.06-2.61,11.05-4.17,13.54a4,4,0,0,1-4.11,1.94s2.93-.62-.53-3.67-3.34-10.4-1.6-14-1.22-6-3.84-4.79Z" style="fill:#263238"></path><path d="M372.13,254.4s-5,3.19-3.88,9.08,10.38-4.67,10.38-4.67Z" style="fill:#263238"></path><path d="M392.77,269c-3.3,7.27-4.81,11.7-10.47,13.93-8.51,3.37-17.59-3.9-16.81-12.09.67-7.38,6-18,15.28-17.91S396.06,261.75,392.77,269Z" style="fill:#ebb376"></path><path d="M377.86,262.71a.55.55,0,0,1,0-.25.43.43,0,0,1,.52-.29,4.07,4.07,0,0,1,2.82,2.5.41.41,0,0,1-.27.52h0a.43.43,0,0,1-.52-.27h0a3.24,3.24,0,0,0-2.29-1.95A.47.47,0,0,1,377.86,262.71Z" style="fill:#263238"></path><path d="M368.67,260.67a.39.39,0,0,1-.18-.18.41.41,0,0,1,.24-.53,4.05,4.05,0,0,1,3.76.36.4.4,0,0,1,.08.57h0a.41.41,0,0,1-.57.09h0a3.25,3.25,0,0,0-3-.22A.47.47,0,0,1,368.67,260.67Z" style="fill:#263238"></path><path d="M371.51,267.9l-2.41,1s.27.95,2.09,1.7Z" style="fill:#d58745"></path><path d="M369.67,272.83a24.12,24.12,0,0,1,.45,3.49l.61.06c2.8.27,4.18-.53,4.87-1.49a3.72,3.72,0,0,0,.6-1.61,3.54,3.54,0,0,0,0-1c-1.56.74-4.19.69-5.59.61C370,272.88,369.67,272.83,369.67,272.83Z" style="fill:#263238"></path><path d="M370.62,272.91l.16,1c2.63.25,4.52.07,5.42-.65a3.54,3.54,0,0,0,0-1C374.65,273,372,273,370.62,272.91Z" style="fill:#fff"></path><path d="M370.73,276.38c2.8.27,4.18-.53,4.87-1.49a8.92,8.92,0,0,0-3.16.31A3.44,3.44,0,0,0,370.73,276.38Z" style="fill:#de5753"></path><path d="M384.79,274.26a10.57,10.57,0,0,1-.9-6.59s-6.72-4.29-8.16-9.26a15.11,15.11,0,0,0,3.78,8.26s-9.65-5.58-8.31-11.54,9.75-6,18-1.73,8.5,12.36,6,17.36c0,0-2.08,10.69-9.7,10.38C385.49,281.14,388,276.12,384.79,274.26Z" style="fill:#263238"></path><path d="M384.71,271.85s3-3.8,4.84-1.86-.49,9-3.77,8.09S382.62,273.76,384.71,271.85Z" style="fill:#ebb376"></path><path d="M375.77,267.56c-.17.79.12,1.53.65,1.64s1.1-.44,1.27-1.24-.13-1.53-.66-1.64S375.93,266.76,375.77,267.56Z" style="fill:#263238"></path><path d="M377.24,266.41l-1.58-1.05S376.21,267,377.24,266.41Z" style="fill:#263238"></path><path d="M368.49,265.18c-.16.8.13,1.53.66,1.64s1.1-.44,1.26-1.23-.12-1.53-.65-1.65S368.66,264.39,368.49,265.18Z" style="fill:#263238"></path><path d="M370,264l-1.59-1S368.94,264.62,370,264Z" style="fill:#263238"></path></g><path d="M355.61,251.23l.75-7.66-6.72.42s-1.28,5.28,2.4,7.84Z" style="fill:#ebb376"></path><polygon points="354.27 238.5 349.34 240.02 349.64 243.99 356.36 243.57 354.27 238.5" style="fill:#ebb376"></polygon><path d="M334.58,314.06c2.35-.08,8.21.35,8.21.35l2.72-1s13.71,2.14,15.26,2,5.74,1.54,5.74,1.54l-30.26,1.32Z" style="fill:#40D7FF"></path><path d="M334.58,314.06c2.35-.08,8.21.35,8.21.35l2.72-1s13.71,2.14,15.26,2,5.74,1.54,5.74,1.54l-30.26,1.32Z" style="fill:#fff;opacity:0.9"></path><path d="M328,317s5.28-5,10.19-1.91c0,0,6.56-3.75,13.29,0l8.95,1.59Z" style="fill:#40D7FF"></path><path d="M328,317s5.28-5,10.19-1.91c0,0,6.56-3.75,13.29,0l8.95,1.59Z" style="fill:#fff;opacity:0.7000000000000001"></path><rect x="314.58" y="316.66" width="69.07" height="4.07" rx="1.4" transform="translate(698.23 637.39) rotate(180)" style="fill:#263238"></rect><path d="M314.58,318v1.34a1.37,1.37,0,0,0,1.37,1.37h66.34a1.36,1.36,0,0,0,1.36-1.37V318a1.36,1.36,0,0,0-1.36-1.36H316A1.36,1.36,0,0,0,314.58,318Z" style="fill:#fff;isolation:isolate;opacity:0.6000000000000001"></path><path d="M314.58,318v1.34a1.37,1.37,0,0,0,1.37,1.37h32a1.36,1.36,0,0,0,1.36-1.37V318a1.36,1.36,0,0,0-1.36-1.36H316A1.36,1.36,0,0,0,314.58,318Z" style="fill:#fff;isolation:isolate;opacity:0.30000000000000004"></path></g><g id="freepik--character-1--inject-40"><polygon points="160.26 395.42 146.23 395.56 150.9 412.37 162.63 412.28 160.26 395.42" style="fill:#ebb376"></polygon><polygon points="160.26 395.43 146.23 395.56 148.84 404.98 161.59 404.87 160.26 395.43" style="opacity:0.2"></polygon><path d="M124.39,329.94c-7.92-21.58-19.6-53.87-15.58-63.79l43.52-1s2.65,47.25,4.36,67.17c1.77,20.7,5.56,69.65,5.56,69.65L147,402S126.4,354.57,124.39,329.94Z" style="fill:#263238"></path><path d="M148.91,417.51H152l.82-1.24,1.61,1.25h18.46a8.21,8.21,0,0,0-.78-4.23s-5.53-.5-7.65-3.25a.67.67,0,0,0-.68-.27c-1.84.38-9.14,1.76-13.16.32a.67.67,0,0,0-.91.6A45.09,45.09,0,0,1,148.91,417.51Z" style="fill:#263238"></path><polygon points="107.73 395.4 93.67 395.54 94.67 412.37 106.42 412.28 107.73 395.4" style="fill:#ebb376"></polygon><polygon points="107.72 395.41 93.66 395.54 94.22 404.97 106.99 404.86 107.72 395.41" style="opacity:0.2"></polygon><path d="M86.13,329.85c-3.21-21.61-7.86-53.93-1.67-63.87l43.73-1s-7.64,47.31-10.28,67.25C115.17,353,108.28,402,108.28,402l-15.21,0S82.77,354.51,86.13,329.85Z" style="fill:#263238"></path><path d="M144.76,192.75c11.87,7.66,12.06,24,21.12,33,1.64,1.91,4.06,2.73,6.9,4.07,4.56,1.95,9.79,3.68,14.8,5.58a5.21,5.21,0,0,1-.94,10.13,68.06,68.06,0,0,1-18-.14c-4.56-.65-10.47-2.11-14.57-5.3a45.48,45.48,0,0,1-11-12.4c-3-4.8-5.39-10.49-7.78-15a20,20,0,0,0-1.3-2.12c-.34-.46-.49-.58-.32-.52-11.17-7.78-.72-24.18,11.06-17.3Z" style="fill:#40D7FF"></path><path d="M187.11,245l.68-5.89c2.86-5.53,9.33-.63,9.33-.63L203,240a3.15,3.15,0,0,1,2.09,3.49l-.45,4.12a3.28,3.28,0,0,1-3.33,3.12l-5.51-.76a6.52,6.52,0,0,1-3-1.08Z" style="fill:#ebb376"></path><path d="M140.79,191.06a192.69,192.69,0,0,0-39.63-7.8c-8.12-.63-14.34,5.53-13.64,13.31,2.87,31.59-6,64.42-2.63,71.61,0,0,43.94,6,68,7.25,10.34-29.14.3-49.81-2.95-75.22C149.37,195.81,145.13,192.44,140.79,191.06Z" style="fill:#40D7FF"></path><path d="M135.09,191.46a6.75,6.75,0,0,0-2.29-4.59,8.71,8.71,0,0,1,2-5.12l-14.24-10.49c-1.09,6.65-3.84,11.91-7.39,14.42,2.72,3.16,7.73,8.86,15.13,10.38S135.19,194.39,135.09,191.46Z" style="fill:#ebb376"></path><path d="M134.38,182.31l-13.85-11.05c0,10.48,8.5,16.07,12.32,14.85A8.78,8.78,0,0,1,134.38,182.31Z" style="opacity:0.2"></path><path d="M128.71,196.15l-2-3.29L121.84,194S123.4,197.08,128.71,196.15Z" style="fill:#40D7FF"></path><path d="M128.71,196.15l-2-3.29L121.84,194S123.4,197.08,128.71,196.15Z" style="opacity:0.30000000000000004"></path><path d="M116.17,181.74s2.93,8.87,10.58,11.12c-5.45,1.12-8.37,6.16-8.37,6.16s-9-4.11-6.44-15.16A14.77,14.77,0,0,1,116.17,181.74Z" style="fill:#40D7FF"></path><path d="M128.71,196.15l4.72-2.33,3.81,2.37S132.38,199.21,128.71,196.15Z" style="fill:#40D7FF"></path><path d="M128.71,196.15l4.72-2.33,3.81,2.37S132.38,199.21,128.71,196.15Z" style="opacity:0.30000000000000004"></path><path d="M132.8,186.87s1.56,4.32.63,6.95c3.22,1.93,2.72,7.83,2.72,7.83s3.9-7.68-.1-13.27A5.49,5.49,0,0,0,132.8,186.87Z" style="fill:#40D7FF"></path><path d="M116.17,181.74s2.93,8.87,10.58,11.12c-5.45,1.12-8.37,6.16-8.37,6.16s-9-4.11-6.44-15.16A14.77,14.77,0,0,1,116.17,181.74Z" style="fill:#fff;opacity:0.7000000000000001"></path><path d="M132.8,186.87s1.56,4.32.63,6.95c3.22,1.93,2.72,7.83,2.72,7.83s3.9-7.68-.1-13.27A5.49,5.49,0,0,0,132.8,186.87Z" style="fill:#fff;opacity:0.7000000000000001"></path><path d="M92.67,417.51h3.06l.83-1.24,1.61,1.25h18.46a8.29,8.29,0,0,0-.79-4.23s-5.52-.5-7.64-3.25a.68.68,0,0,0-.68-.27c-1.84.38-9.15,1.76-13.17.32a.66.66,0,0,0-.9.6A44.44,44.44,0,0,1,92.67,417.51Z" style="fill:#263238"></path><path d="M143.37,154s9.26,8.2,1,16.06S136.33,151.19,143.37,154Z" style="fill:#263238"></path><path d="M120.07,160.34c-1.1,8.54-1.65,14.37,2.83,19.15,8.9,9.5,16,6.39,19.77-1.51,3.41-7.11,4.64-19.87-3.47-25.23S121.18,151.81,120.07,160.34Z" style="fill:#ebb376"></path><path d="M135.4,165.61c-.16.74.1,1.42.58,1.52s1-.42,1.16-1.15-.1-1.41-.58-1.51S135.56,164.88,135.4,165.61Z" style="fill:#263238"></path><path d="M142.94,167.46c-.16.73.1,1.41.58,1.51s1-.41,1.16-1.15-.1-1.41-.58-1.51S143.1,166.73,142.94,167.46Z" style="fill:#263238"></path><path d="M140.29,167.49l-1.39,6.16a6.72,6.72,0,0,0,2.14.57.82.82,0,0,0,.74-1.26A14.69,14.69,0,0,1,140.29,167.49Z" style="fill:#d58745"></path><path d="M132,162.67a.5.5,0,0,1-.19-.13.43.43,0,0,1,.05-.62,4.4,4.4,0,0,1,3.91-1,.43.43,0,0,1,.3.54.46.46,0,0,1-.55.31h0a3.5,3.5,0,0,0-3.08.86A.47.47,0,0,1,132,162.67Z" style="fill:#263238"></path><path d="M146.31,166.1a.45.45,0,0,1-.32-.28,3.46,3.46,0,0,0-2.28-2.21.44.44,0,0,1-.33-.53.45.45,0,0,1,.53-.33,4.32,4.32,0,0,1,2.91,2.76.44.44,0,0,1-.26.57A.43.43,0,0,1,146.31,166.1Z" style="fill:#263238"></path><path d="M141.3,177.16s-2.86-1.48-11.39-3.68c.34,2.82,1.67,5.4,6.05,6.48S141.3,177.16,141.3,177.16Z" style="fill:#263238"></path><path d="M134.45,177.42a8.26,8.26,0,0,1,4.44,2.47A4.8,4.8,0,0,1,136,180a8.12,8.12,0,0,1-4.43-2.46A4.76,4.76,0,0,1,134.45,177.42Z" style="fill:#a02724"></path><path d="M140.93,177a1.81,1.81,0,0,1-1.66.93,46.29,46.29,0,0,1-7.39-2.58,2.47,2.47,0,0,1-1.6-1.75A71.74,71.74,0,0,1,140.93,177Z" style="fill:#fff"></path><path d="M122.87,168.5s6.18-6.81,4.69-13.6c0,0,4.27,2.59,13.37,2.1,0,0-2.75,2.69-8,1.11,0,0,6.1,3,12.32.12s-1-9.16-9-10.51-13.77-1.22-14.43,2.73c0,0-8.7,0-6,15.66Z" style="fill:#263238"></path><path d="M114.73,168.63a8.69,8.69,0,0,0,4.53,4.92c2.81,1.27,4.7-1.12,4.33-4-.33-2.6-2.19-6.39-5.21-6.45S113.78,166,114.73,168.63Z" style="fill:#ebb376"></path><path d="M102.24,204.3c-7.37,5.42-20.94,15.49-23,24.36l-.63-3.38c-.37-.39-.34.32.32,1.14,3.05,3.59,7.65,5.94,11.59,8.56,4.83,2.78,3.46,9.63-2.12,9.94a41.05,41.05,0,0,1-6.65-.33c-8-1.12-16.73-4.5-20.41-12.59a7.79,7.79,0,0,1-.63-3.38,30,30,0,0,1,4.1-15.27c6.15-10.78,15-18.59,25-25.41l1.4-.9c11.75-6.89,22.23,9.41,11.12,17.26Z" style="fill:#40D7FF"></path><path d="M126.81,224.19l-2-2.82-11.18-2-11.75-9.84-7.87,8.7s-6,11-5.43,11.44,14.86,8.16,14.86,8.16l9.71-1.21Z" style="fill:#e0e0e0"></path><polygon points="98 208.6 80.97 229.19 98.24 239.91 112.48 242.42 129.34 223.5 113.18 220.4 98 208.6" style="fill:#263238"></polygon><polygon points="113.18 220.4 98.24 239.91 80.97 229.2 98 208.61 113.18 220.4" style="fill:#fff;isolation:isolate;opacity:0.4"></polygon><polygon points="113.18 220.4 98.24 239.91 112.48 242.42 129.34 223.5 113.18 220.4" style="fill:#fff;opacity:0.2"></polygon><path d="M88.54,236.43l-.87,5.86c1.33,6.08,8.86,3,8.86,3h4.21a3.14,3.14,0,0,0,2.92-2.83l.64-4.09a3.28,3.28,0,0,0-2.42-3.88l-3.62-.59a6.47,6.47,0,0,0-3.15.26Z" style="fill:#ebb376"></path></g></svg>